<svg width="30" height="30" viewBox="0 0 30 30" fill="none" xmlns="http://www.w3.org/2000/svg">
<circle cx="15" cy="15" r="15" fill="#ADADAD"/>
<path d="M21 23V21.3333C21 20.4493 20.6629 19.6014 20.0627 18.9763C19.4626 18.3512 18.6487 18 17.8 18H12.2C11.3513 18 10.5374 18.3512 9.93726 18.9763C9.33714 19.6014 9 20.4493 9 21.3333V23M18 11.125C18 12.8509 16.6569 14.25 15 14.25C13.3432 14.25 12 12.8509 12 11.125C12 9.39911 13.3432 8 15 8C16.6569 8 18 9.39911 18 11.125Z" stroke="black" stroke-linecap="round" stroke-linejoin="round"/>
</svg>
